<svg width="26" height="26" viewBox="0 0 26 26" fill="none" xmlns="http://www.w3.org/2000/svg">
<rect width="26" height="26" rx="13" fill="white"/>
<path opacity="0.987" fill-rule="evenodd" clip-rule="evenodd" d="M11.7147 1.72372C12.8928 1.59209 13.5899 1.59209 14.8558 1.72372C17.0965 2.05537 19.1738 3.09113 20.787 4.68122C19.6969 5.71169 18.621 6.75721 17.5598 7.81747C15.5274 6.09497 13.2589 5.69739 10.7543 6.62472C8.91694 7.46972 7.63753 8.83905 6.91603 10.7327C5.73699 9.85494 4.57332 8.95672 3.42553 8.03847C3.34576 7.99648 3.25466 7.98111 3.16553 7.99459C4.98878 4.47918 7.83794 2.38834 11.713 1.72209" fill="#F44336"/>
<path opacity="0.997" fill-rule="evenodd" clip-rule="evenodd" d="M3.16217 7.99444C3.25425 7.98036 3.34146 7.99498 3.4238 8.03831C4.57159 8.95657 5.73526 9.85479 6.9143 10.7326C6.72876 11.4704 6.61181 12.2238 6.56492 12.9832C6.605 13.7177 6.72146 14.4386 6.9143 15.1461L3.24992 18.0629C1.65417 14.7284 1.62492 11.3723 3.16217 7.99444Z" fill="#FFC107"/>
<path opacity="0.999" fill-rule="evenodd" clip-rule="evenodd" d="M20.6131 21.596C19.4721 20.5897 18.2777 19.6458 17.0349 18.7685C18.2807 17.8888 19.0369 16.682 19.3034 15.148H13.1982V10.9083C16.7191 10.8791 20.2383 10.9089 23.7559 10.9977C24.4232 14.6215 23.6524 17.8888 21.4435 20.7997C21.1808 21.0789 20.9026 21.3447 20.6131 21.596Z" fill="#448AFF"/>
<path opacity="0.993" fill-rule="evenodd" clip-rule="evenodd" d="M6.91437 15.1475C8.24687 18.4592 10.6898 20.0051 14.2431 19.7852C15.2406 19.6697 16.1969 19.3213 17.0349 18.768C18.2785 19.6476 19.4713 20.5901 20.6131 21.5955C18.8039 23.2212 16.4972 24.1858 14.0692 24.332C13.5176 24.3761 12.9634 24.3761 12.4117 24.332C8.27558 23.8445 5.22167 21.7547 3.25 18.0627L6.91437 15.1475Z" fill="#43A047"/>
</svg>
