<svg width="12" height="10" viewBox="0 0 12 10" fill="none" xmlns="http://www.w3.org/2000/svg">
<path d="M7.16497 9.85708L11.97 5.02708L7.16497 0.19708C7.12158 0.140093 7.06644 0.0930952 7.0033 0.0592684C6.94017 0.0254416 6.8705 0.00557547 6.79901 0.00101464C6.72753 -0.00354619 6.6559 0.00730509 6.58898 0.0328335C6.52205 0.0583619 6.46139 0.0979715 6.41111 0.148981C6.36082 0.199991 6.32208 0.261209 6.29751 0.328492C6.27294 0.395774 6.26312 0.467551 6.2687 0.538961C6.27428 0.610372 6.29514 0.67975 6.32986 0.742398C6.36459 0.805046 6.41237 0.859502 6.46997 0.90208L10.065 4.52708H0.49997C0.367362 4.52708 0.240186 4.57976 0.146418 4.67353C0.0526495 4.76729 -2.95639e-05 4.89447 -2.95639e-05 5.02708C-2.95639e-05 5.15969 0.0526495 5.28687 0.146418 5.38063C0.240186 5.4744 0.367362 5.52708 0.49997 5.52708H10.065L6.46997 9.15208C6.37648 9.24623 6.32422 9.37367 6.32469 9.50635C6.32516 9.63903 6.37832 9.76609 6.47247 9.85958C6.56662 9.95307 6.69406 10.0053 6.82674 10.0049C6.95942 10.0044 7.08648 9.95123 7.17997 9.85708H7.16497Z" fill="#991318"/>
</svg>
