<svg width="104" height="104" viewBox="0 0 104 104" fill="none" xmlns="http://www.w3.org/2000/svg">
<rect width="104" height="104" rx="52" fill="#FFA500" fill-opacity="0.1"/>
<path d="M75.15 52.0577C75.15 52.448 74.9949 52.8223 74.719 53.0983C74.443 53.3743 74.0686 53.5294 73.6783 53.5294H52.0934C51.703 53.5294 51.3287 53.3743 51.0527 53.0983C50.7767 52.8223 50.6217 52.448 50.6217 52.0577C50.6217 51.6673 50.7767 51.293 51.0527 51.017C51.3287 50.741 51.703 50.586 52.0934 50.586H73.6783C74.0686 50.586 74.443 50.741 74.719 51.017C74.9949 51.293 75.15 51.6673 75.15 52.0577ZM52.0934 37.8312H73.6783C74.0686 37.8312 74.443 37.6762 74.719 37.4002C74.9949 37.1242 75.15 36.7498 75.15 36.3595C75.15 35.9692 74.9949 35.5949 74.719 35.3189C74.443 35.0429 74.0686 34.8878 73.6783 34.8878H52.0934C51.703 34.8878 51.3287 35.0429 51.0527 35.3189C50.7767 35.5949 50.6217 35.9692 50.6217 36.3595C50.6217 36.7498 50.7767 37.1242 51.0527 37.4002C51.3287 37.6762 51.703 37.8312 52.0934 37.8312ZM73.6783 66.2841H52.0934C51.703 66.2841 51.3287 66.4392 51.0527 66.7152C50.7767 66.9912 50.6217 67.3655 50.6217 67.7558C50.6217 68.1461 50.7767 68.5205 51.0527 68.7965C51.3287 69.0725 51.703 69.2275 52.0934 69.2275H73.6783C74.0686 69.2275 74.443 69.0725 74.719 68.7965C74.9949 68.5205 75.15 68.1461 75.15 67.7558C75.15 67.3655 74.9949 66.9912 74.719 66.7152C74.443 66.4392 74.0686 66.2841 73.6783 66.2841ZM41.242 31.395L34.4329 38.2016L31.5484 35.3195C31.2694 35.0596 30.9004 34.918 30.5192 34.9248C30.1379 34.9315 29.7741 35.0859 29.5045 35.3556C29.2348 35.6252 29.0804 35.989 29.0737 36.3703C29.0669 36.7515 29.2084 37.1205 29.4684 37.3995L33.3929 41.3241C33.6689 41.5997 34.0429 41.7545 34.4329 41.7545C34.8229 41.7545 35.197 41.5997 35.4729 41.3241L43.322 33.475C43.582 33.196 43.7235 32.827 43.7168 32.4457C43.7101 32.0645 43.5556 31.7007 43.286 31.4311C43.0163 31.1614 42.6525 31.007 42.2713 31.0002C41.89 30.9935 41.521 31.135 41.242 31.395ZM41.242 47.0931L34.4329 53.8997L31.5484 51.0177C31.4137 50.8731 31.2512 50.7571 31.0707 50.6767C30.8901 50.5962 30.6953 50.553 30.4977 50.5495C30.3001 50.546 30.1038 50.5823 29.9205 50.6564C29.7373 50.7304 29.5708 50.8406 29.4311 50.9803C29.2913 51.1201 29.1811 51.2865 29.1071 51.4698C29.0331 51.653 28.9967 51.8493 29.0002 52.0469C29.0037 52.2445 29.047 52.4394 29.1274 52.6199C29.2078 52.8005 29.3238 52.9629 29.4684 53.0977L33.3929 57.0222C33.6689 57.2978 34.0429 57.4526 34.4329 57.4526C34.8229 57.4526 35.197 57.2978 35.4729 57.0222L43.322 49.1731C43.582 48.8941 43.7235 48.5252 43.7168 48.1439C43.7101 47.7626 43.5556 47.3988 43.286 47.1292C43.0163 46.8596 42.6525 46.7051 42.2713 46.6984C41.89 46.6916 41.521 46.8332 41.242 47.0931ZM41.242 62.7913L34.4329 69.5979L31.5484 66.7158C31.2694 66.4558 30.9004 66.3143 30.5192 66.3211C30.1379 66.3278 29.7741 66.4822 29.5045 66.7519C29.2348 67.0215 29.0804 67.3853 29.0737 67.7666C29.0669 68.1478 29.2084 68.5168 29.4684 68.7958L33.3929 72.7204C33.6689 72.996 34.0429 73.1508 34.4329 73.1508C34.8229 73.1508 35.197 72.996 35.4729 72.7204L43.322 64.8713C43.582 64.5923 43.7235 64.2233 43.7168 63.842C43.7101 63.4608 43.5556 63.097 43.286 62.8273C43.0163 62.5577 42.6525 62.4032 42.2713 62.3965C41.89 62.3898 41.521 62.5313 41.242 62.7913Z" fill="#FFA500"/>
</svg>
